<?xml version="1.0" standalone="no"?>
<!DOCTYPE svg PUBLIC "-//W3C//DTD SVG 20010904//EN"
 "http://www.w3.org/TR/2001/REC-SVG-20010904/DTD/svg10.dtd">
<svg version="1.0" xmlns="http://www.w3.org/2000/svg"
 width="500.000000pt" height="500.000000pt" viewBox="0 0 500.000000 500.000000"
 preserveAspectRatio="xMidYMid meet">
<metadata>
Created by potrace 1.16, written by Peter Selinger 2001-2019
</metadata>
<g transform="translate(0.000000,500.000000) scale(0.100000,-0.100000)"
fill="#000000" stroke="none">
<path d="M2306 3752 c-2 -4 -13 -41 -24 -82 -11 -41 -23 -83 -27 -92 -6 -15
-2 -18 23 -18 32 0 50 14 32 25 -22 14 -10 35 20 35 28 0 30 -3 28 -27 -3 -26
-1 -28 32 -25 41 4 61 19 38 27 -9 4 -31 42 -49 86 -23 56 -38 79 -50 79 -10
0 -20 -3 -23 -8z"/>
<path d="M2543 3746 c9 -23 -12 -128 -30 -148 -17 -18 -10 -25 32 -29 l30 -4
-3 50 c-4 59 13 53 26 -10 10 -50 31 -52 54 -6 9 19 22 39 27 44 17 17 13 -35
-4 -57 -19 -24 -5 -36 43 -36 32 0 42 16 23 36 -5 5 -6 39 -2 79 5 39 6 73 4
78 -2 4 -15 7 -28 7 -18 0 -29 -9 -41 -32 -32 -63 -37 -64 -54 -12 -15 44 -20
49 -50 52 -26 3 -32 0 -27 -12z"/>
<path d="M2075 3718 c-29 -16 -29 -16 -11 -33 23 -24 20 -44 -11 -56 -32 -12
-46 3 -39 44 4 21 2 27 -12 27 -25 0 -60 -28 -47 -37 16 -12 47 -121 40 -142
-8 -27 5 -31 45 -14 30 12 33 16 19 26 -9 7 -19 22 -23 33 -5 18 -2 23 19 28
36 9 47 0 43 -37 -3 -30 -1 -32 27 -29 43 5 47 13 25 58 -11 22 -22 63 -24 90
-4 52 -16 62 -51 42z"/>
<path d="M2886 3650 c-10 -33 -28 -72 -39 -86 -22 -28 -15 -42 23 -46 20 -2
25 1 23 19 -2 12 4 37 12 55 l14 33 1 -57 c0 -32 5 -60 12 -64 7 -4 27 11 50
37 39 43 39 43 33 14 -4 -16 -13 -37 -21 -46 -20 -22 -18 -26 17 -38 44 -15
51 -14 44 8 -7 23 12 107 32 139 33 53 -33 59 -79 6 -35 -40 -48 -33 -48 28 0
27 -6 40 -19 48 -31 16 -35 13 -55 -50z"/>
<path d="M1715 3578 c-35 -41 -30 -96 11 -139 74 -77 185 8 139 106 -33 69
-106 85 -150 33z"/>
<path d="M3228 3583 c0 -4 -2 -12 -3 -18 -3 -22 -58 -120 -71 -128 -24 -14
-16 -23 45 -56 58 -31 60 -31 70 -12 18 32 13 41 -19 37 -37 -4 -53 13 -35 37
11 15 17 17 34 7 27 -14 41 -5 41 27 0 20 -4 24 -20 20 -24 -6 -28 20 -5 29
17 7 46 -12 42 -28 -4 -20 22 -19 32 0 12 23 10 25 -61 66 -27 15 -49 23 -50
19z"/>
<path d="M1510 3465 c-12 -14 -11 -34 4 -102 6 -30 -6 -29 -53 3 -32 21 -43
24 -60 14 -21 -11 -29 -40 -11 -40 14 0 80 -101 80 -122 0 -23 12 -23 41 1 20
16 21 21 10 35 -7 8 -17 14 -22 13 -5 -1 -19 13 -31 32 l-22 34 52 -37 c78
-54 82 -51 57 43 l-14 53 25 -23 c13 -12 24 -33 24 -45 0 -35 15 -37 51 -7
l32 27 -25 11 c-29 11 -98 90 -98 111 0 19 -24 18 -40 -1z"/>
<path d="M3447 3444 c-3 -3 -3 -12 -1 -19 3 -7 -20 -39 -51 -70 l-56 -58 28
-24 c60 -51 109 -56 153 -15 42 37 48 78 18 120 -24 35 -81 76 -91 66z"/>
<path d="M2493 3118 c-6 -7 -38 -85 -73 -173 -79 -201 -192 -431 -267 -543
-124 -186 -299 -322 -412 -322 -60 0 -107 28 -116 69 -15 69 57 128 184 153
72 15 99 39 68 62 -37 28 -202 -23 -261 -80 -102 -99 -64 -229 77 -264 99 -25
233 35 363 165 130 130 230 288 339 540 68 156 78 176 70 129 -3 -16 -14 -94
-26 -174 -11 -80 -35 -234 -54 -343 -19 -109 -31 -205 -28 -213 9 -24 40 -16
69 18 43 52 201 296 323 501 62 103 114 187 116 187 3 0 -2 -22 -38 -165 -62
-240 -88 -436 -73 -538 12 -78 73 -132 105 -93 9 11 6 21 -15 46 -34 40 -41
100 -25 223 17 123 70 366 131 588 55 199 57 217 35 225 -23 9 -40 -10 -92
-105 -132 -243 -424 -711 -443 -711 -6 0 -9 8 -6 18 27 86 112 747 101 789 -6
25 -36 31 -52 11z"/>
<path d="M1332 3067 c-27 -32 -91 -206 -120 -322 -24 -99 -23 -426 2 -539 26
-121 109 -334 136 -351 25 -15 19 30 -13 102 -74 167 -117 362 -117 535 0 144
47 356 110 495 17 36 30 72 30 79 0 18 -14 18 -28 1z"/>
<path d="M3590 3053 c0 -10 11 -42 25 -71 36 -77 70 -194 90 -305 14 -76 16
-131 12 -255 -6 -178 -23 -259 -87 -420 -44 -109 -47 -122 -26 -122 24 0 97
182 133 332 25 103 25 400 0 512 -23 101 -61 216 -95 286 -28 55 -52 76 -52
43z"/>
<path d="M1485 1595 c-42 -36 -83 -65 -91 -65 -21 0 -17 -17 8 -34 32 -22 48
-20 45 6 -2 27 29 35 56 14 19 -15 13 -46 -9 -46 -24 0 -15 -20 19 -40 42 -26
46 -25 45 8 0 15 9 65 20 112 20 81 17 110 -8 110 -5 0 -43 -29 -85 -65z"/>
<path d="M3203 1578 c-28 -13 -29 -24 -4 -37 21 -12 46 -71 30 -71 -5 0 -34
14 -65 31 -47 27 -59 30 -80 21 -28 -14 -30 -24 -7 -43 22 -19 66 -119 65
-146 -2 -26 6 -28 43 -11 27 12 34 28 12 28 -12 0 -57 79 -57 101 0 6 34 -8
76 -30 41 -23 80 -41 85 -41 16 0 10 25 -21 94 -17 37 -30 77 -28 89 3 25 -16
31 -49 15z"/>
<path d="M1743 1531 c7 -26 -44 -147 -69 -166 -18 -13 -16 -15 31 -35 28 -11
58 -25 67 -30 29 -16 46 -11 52 16 9 33 1 42 -25 26 -20 -13 -59 -1 -59 17 0
22 45 118 63 134 17 15 18 20 6 31 -8 8 -27 17 -43 20 -25 6 -28 5 -23 -13z"/>
<path d="M2863 1452 c-7 -4 -15 -47 -19 -102 -4 -52 -11 -101 -17 -108 -18
-23 7 -37 42 -22 35 14 37 18 15 34 -14 11 -14 14 3 33 24 28 68 15 58 -17 -5
-17 -2 -20 20 -20 14 0 36 5 47 11 21 11 21 12 3 25 -10 7 -41 48 -69 91 -52
79 -62 88 -83 75z"/>
<path d="M1996 1428 c-24 -33 -20 -54 19 -97 38 -42 42 -53 22 -69 -17 -15
-61 14 -53 34 7 19 -14 30 -25 13 -27 -43 4 -78 67 -79 78 0 96 55 39 119 -19
21 -35 44 -35 50 0 19 37 12 52 -11 17 -26 38 -17 38 17 0 47 -95 64 -124 23z"/>
<path d="M2284 1373 c-40 -97 -67 -153 -75 -153 -5 0 -9 -7 -9 -15 0 -11 11
-15 40 -15 37 0 55 13 29 22 -20 7 2 34 28 33 29 0 41 -19 24 -39 -16 -19 -3
-26 46 -26 39 0 59 13 33 22 -5 2 -19 44 -31 93 -28 120 -26 115 -49 115 -15
0 -26 -11 -36 -37z"/>
<path d="M2635 1400 c-3 -5 -4 -14 -1 -19 3 -5 1 -23 -5 -41 -11 -29 -13 -30
-27 -16 -9 9 -16 28 -17 43 0 24 -4 28 -34 31 -55 5 -57 -11 -12 -68 47 -59
59 -95 42 -121 -16 -27 -15 -29 28 -29 39 0 63 16 44 29 -6 3 -13 18 -17 33
-7 30 28 112 58 137 9 7 13 17 10 22 -7 12 -61 11 -69 -1z"/>
</g>
</svg>
